<svg width="500" height="126" version="1.1" xmlns="http://www.w3.org/2000/svg">
 <path d="m43.797 13.956c-15.761 0-28.718 5.7545-36.894 17.922-2.2085 4.9888-2.3975 8.956-0.66039 10.325 8.2358 6.4819 12.973-21.102 48.025-21.102 12.997 0 21.173 4.8142 27.217 10.875-0.07663-0.07896-0.1197-0.12436-0.1197-0.12436-8.2884-8.6402-20.542-17.895-37.568-17.895" fill="#214d92"/>
 <path d="m111.97 25.727c-0.91402-1.5242-1.9979-2.9359-3.1895-4.2519-10.557-11.653-27.586-21.475-44.562-21.475-33.125 0-51.719 19.221-57.318 31.876 8.176-12.167 21.133-17.922 36.894-17.922 17.027 0 29.28 9.2551 37.568 17.898 0 0 0.04307 0.0454 0.1197 0.12203l0.26559 0.26559c2.1056 2.0913 12.672 12.047 22.745 12.047 7.9726 0 14.012-7.6567 7.4773-18.56" fill="#5387ec"/>
 <path d="m110.13 23.012c9.346 12.327 2.9861 21.274-5.6325 21.274-10.076 0-20.64-9.9562-22.748-12.047 10.066 10.258 14.206 23.896 25.21 23.942 5.8789 0.02387 11.277-3.3977 12.289-10.676 0.92839-6.6877-2.6942-14.895-9.1187-22.492" fill="#93b8ef"/>
 <path d="m43.776 112.05c11.717 0 21.243-5.3214 29.957-11.811-4.819 2.9311-11.121 6.0273-19.465 4.8477-50.726-7.1782-41.528-48.91-49.355-48.91-6.2977 0-6.0751 21.697 0 34.891 10.035 16.948 21.506 20.982 38.863 20.982" fill="#93b8ef"/>
 <path d="m103.34 70.038c-11.196 0.87335-16.711 19.252-29.641 30.23 0.01256-9e-3 0.02387-0.0161 0.03589-0.0264 0.0072-2e-3 0.01256-7e-3 0.0192-0.0126 0.15792-0.10768 0.31584-0.2345 0.47376-0.34456 1.395-1.0863 5.0032-4.2519 9.1857-7.6472 1.7276-1.5744 3.3259-3.0699 4.8501-4.4194 0.03105-0.02638 0.06227-0.05509 0.09332-0.08129 0.3613-0.31825 0.71782-0.62691 1.0696-0.92599 0.10534-0.09098 0.21055-0.17712 0.31584-0.26559 0.28472-0.23928 0.56708-0.47137 0.84941-0.69628 0.12436-0.10283 0.25124-0.20339 0.37565-0.30148 0.268-0.20817 0.53119-0.40916 0.79678-0.60537 0.12203-0.09098 0.24885-0.18423 0.37088-0.27277 0.2991-0.21535 0.59579-0.41634 0.89489-0.61253 0.07896-0.05258 0.16276-0.11252 0.24406-0.1651 0.37327-0.23688 0.74653-0.4594 1.1198-0.66519 0.09565-0.05258 0.19141-0.09565 0.28713-0.1459 0.27754-0.1459 0.55272-0.28474 0.83027-0.40916 0.13638-0.06227 0.27518-0.11485 0.41156-0.17228 0.23927-0.09816 0.48094-0.18902 0.72021-0.27277 0.14841-0.05025 0.29669-0.09565 0.44505-0.13872 0.23927-0.07178 0.47615-0.13154 0.71782-0.18663 0.1459-0.03105 0.29192-0.0646 0.43787-0.09098 0.2608-0.04791 0.52401-0.07896 0.7896-0.10283 0.12436-0.01436 0.25124-0.03105 0.37806-0.03822 0.3924-0.02387 0.7896-0.02638 1.1916 0 7.8218 0.51206 9.5063 6.7523 9.3269 12.335-0.3996 12.373-14.175 23.071-28.258 28.39 19.24-6.6662 35.69-21.769 35.69-38.334 0-4.1801-2.8067-14.897-14.021-14.021" fill="#5387ec"/>
 <path d="m100.6 81.668c-0.40198-0.02638-0.79917-0.02154-1.1916 0-0.12688 0.0072-0.25362 0.02638-0.38044 0.03822-0.26321 0.02638-0.52639 0.05742-0.78721 0.10283-0.0054 0.0018-9e-3 0.0018-0.01436 0.0018-0.53596 0.09816-1.0624 0.23927-1.5792 0.41395-0.0018 0-0.0054 0-0.0072 0.0018-0.24165 0.08129-0.48094 0.17461-0.72021 0.27277-0.13639 0.05509-0.27516 0.11-0.41154 0.16994-0.27756 0.12688-0.55272 0.26559-0.83028 0.40916-0.09565 0.05025-0.19142 0.09565-0.28951 0.14841-0.37088 0.20339-0.74415 0.42592-1.1174 0.66518-0.08381 0.05258-0.1651 0.11001-0.24644 0.1651-0.29671 0.19381-0.5934 0.39719-0.8925 0.61015-0.12436 0.08847-0.24883 0.18425-0.37327 0.27516-0.26319 0.19622-0.52878 0.3948-0.79438 0.60537-0.12436 0.09816-0.25124 0.19858-0.37806 0.29908-0.27995 0.22493-0.56229 0.45702-0.84703 0.69628-0.10534 0.08847-0.21055 0.17461-0.31584 0.26559-0.35412 0.30148-0.70826 0.60776-1.0696 0.92599-0.03105 0.02871-0.06227 0.05509-0.09332 0.08381-0.71064 0.6293-1.4428 1.2945-2.1917 1.9812-0.7585 0.6939-9.6571 8.3052-11.306 9.6499-0.34455 0.26321-1.0528 0.80636-1.0696 0.81831 0 0 0.0018 0 0.0018-2e-3 -8.7072 6.4771-18.223 11.787-29.924 11.787-17.357 0-28.828-4.0341-38.863-20.982 0.87574 1.9022 1.8831 3.7733 3.0244 5.5583 5.3047 8.2982 22.537 29.371 53.341 29.371 6.7547 0 13.741-1.3016 20.393-3.6058 14.081-5.319 27.859-16.019 28.256-28.39 0.17946-5.5846-1.5026-11.825-9.3245-12.337" fill="#214d92"/>
 <path d="m470.56 70.876c-5.3238 0.57905-8.3315 3.357-8.3315 7.5227 0 4.6275 3.5867 7.5227 9.4896 7.5227 8.7933 0 15.507-6.135 15.507-13.773v-3.357zm4.9769-34.604c16.201 0 24.188 7.5227 24.188 22.568v36.685h-12.5v-7.9845c-3.9336 5.9005-10.416 9.3723-18.402 9.3723-11.688 0-19.558-7.5203-19.558-18.168 0-9.9538 7.061-16.897 18.517-17.938l16.086-1.6199c2.431-0.23211 3.357-1.0432 3.357-2.6631v-1.2729c0-4.8596-4.1658-7.7525-11.459-7.7525-7.9845 0-13.308 3.3546-14.696 9.0254l-10.069-6.3647c3.0077-9.0254 11.571-13.887 24.535-13.887m-53.347 2.33e-4c10.416 0 17.938 3.7039 22.915 10.648l-8.4487 7.9846c-3.1249-4.7448-8.9129-7.1758-15.392-7.1758-5.7856 0-9.3747 2.0841-9.3747 5.788 0 3.9336 3.8188 4.8596 13.658 7.1734 11.571 2.778 19.673 6.135 19.673 17.823 0 11.921-8.5636 18.4-23.492 18.4-11.806 0-21.18-4.2806-25.693-11.688l8.5636-8.2166c3.357 5.209 9.3747 8.5636 18.053 8.5636 6.135 0 9.8365-2.0817 9.8365-6.3647 0-4.2806-3.5867-5.2066-12.844-7.2906-9.9538-2.1989-20.484-5.6708-20.484-17.938 0-10.995 8.7957-17.706 23.03-17.706m-61.101 34.603c-5.3238 0.57905-8.3315 3.357-8.3315 7.5227 0 4.6275 3.5867 7.5227 9.4896 7.5227 8.7933 0 15.507-6.135 15.507-13.773v-3.357zm4.9769-34.604c16.201 0 24.188 7.5227 24.188 22.568v36.685h-12.5v-7.9845c-3.9336 5.9005-10.416 9.3723-18.403 9.3723-11.688 0-19.558-7.5203-19.558-18.168 0-9.9538 7.061-16.897 18.517-17.938l16.086-1.6199c2.431-0.23211 3.357-1.0432 3.357-2.6631v-1.2729c0-4.8596-4.1658-7.7525-11.459-7.7525-7.9845 0-13.308 3.3546-14.696 9.0254l-10.069-6.3647c3.0077-9.0254 11.571-13.887 24.535-13.887m-43.973 30.322c0-10.995-6.9437-18.403-17.359-18.403-10.418 0-17.359 7.293-17.359 18.403 0 11.109 6.9413 18.4 17.359 18.4 10.416 0 17.359-7.4055 17.359-18.4m-46.639-28.933h12.497v8.2166c4.6299-6.2498 11.574-9.6044 19.908-9.6044 15.969 0 27.081 12.382 27.081 30.321 0 17.938-11.112 30.321-26.966 30.321-8.2166 0-15.046-3.357-20.022-9.7217v31.479h-12.497zm-38.535 10.763c-10.416 0-17.821 7.4055-17.821 18.17 0 10.763 7.4055 18.168 17.821 18.168s17.823-7.4055 17.823-18.168c0-10.765-7.4079-18.17-17.823-18.17m0-12.15c17.591 0 30.67 12.614 30.67 30.321 0 17.706-13.079 30.321-30.67 30.321s-30.668-12.614-30.668-30.321c0-17.706 13.076-30.321 30.668-30.321m-54.275-9.51e-4c8.5636 0 15.857 2.8928 21.41 8.4487l-7.5228 9.8365c-4.3955-4.0509-9.0254-6.135-14.234-6.135-10.416 0-17.474 7.4079-17.474 18.17 0 10.648 7.1734 18.17 17.359 18.17 5.4387 0 10.53-2.1989 14.928-6.3647l7.1758 9.9514c-5.5535 5.5559-13.308 8.5636-22.104 8.5636-17.938 0-30.206-12.268-30.206-30.206 0-17.936 12.614-30.436 30.668-30.436" fill="#15315e"/>
</svg>
